<svg width="232" height="52" viewBox="0 0 232 52" fill="none" xmlns="http://www.w3.org/2000/svg">
<g filter="url(#filter0_i_6_7)">
<path d="M136.46 18.6875C136.536 17.6174 136.252 16.7888 135.608 16.2017C134.973 15.6146 133.97 15.321 132.597 15.321C131.688 15.321 130.911 15.4394 130.267 15.6761C129.623 15.9034 129.116 16.2254 128.747 16.642C128.378 17.0492 128.146 17.5227 128.051 18.0625C127.966 18.4886 127.99 18.8674 128.122 19.1989C128.255 19.5303 128.487 19.8239 128.818 20.0795C129.159 20.3352 129.58 20.5578 130.082 20.7472C130.594 20.9366 131.167 21.1023 131.801 21.2443L134.188 21.8125C135.57 22.125 136.768 22.5417 137.781 23.0625C138.804 23.5739 139.633 24.1941 140.267 24.9233C140.902 25.643 141.337 26.4716 141.574 27.4091C141.811 28.3466 141.83 29.3977 141.631 30.5625C141.328 32.3996 140.603 33.9763 139.457 35.2926C138.321 36.6089 136.834 37.6174 134.997 38.3182C133.17 39.0189 131.044 39.3693 128.619 39.3693C126.195 39.3693 124.135 39.0047 122.44 38.2756C120.755 37.5369 119.533 36.4242 118.776 34.9375C118.018 33.4508 117.814 31.5758 118.165 29.3125H124.884C124.779 30.25 124.898 31.0312 125.239 31.6562C125.589 32.2812 126.129 32.7547 126.858 33.0767C127.587 33.3987 128.468 33.5597 129.5 33.5597C130.447 33.5597 131.276 33.4318 131.986 33.1761C132.705 32.9205 133.278 32.5653 133.705 32.1108C134.14 31.6562 134.405 31.1354 134.5 30.5483C134.595 30.0085 134.505 29.5398 134.23 29.142C133.965 28.7443 133.51 28.3987 132.866 28.1051C132.232 27.8116 131.399 27.5464 130.366 27.3097L127.455 26.5994C125.049 26.0123 123.226 25.0748 121.986 23.7869C120.755 22.4991 120.319 20.7519 120.679 18.5455C120.982 16.7367 121.73 15.1553 122.923 13.8011C124.126 12.447 125.646 11.3958 127.483 10.6477C129.33 9.89015 131.361 9.51136 133.577 9.51136C135.83 9.51136 137.724 9.89489 139.259 10.6619C140.802 11.4195 141.915 12.4896 142.597 13.8722C143.288 15.2453 143.487 16.8504 143.193 18.6875H136.46ZM159.741 17.1818L158.875 22.2955H145.111L145.977 17.1818H159.741ZM149.713 11.9545H156.659L153.307 32.1392C153.241 32.5653 153.25 32.911 153.335 33.1761C153.43 33.4318 153.6 33.6165 153.847 33.7301C154.102 33.8343 154.415 33.8864 154.784 33.8864C155.04 33.8864 155.324 33.858 155.636 33.8011C155.949 33.7443 156.186 33.7017 156.347 33.6733L156.574 38.6875C156.205 38.7917 155.707 38.91 155.082 39.0426C154.467 39.1847 153.747 39.2746 152.923 39.3125C151.257 39.3788 149.879 39.1847 148.79 38.7301C147.71 38.2661 146.948 37.5464 146.503 36.571C146.067 35.5956 145.982 34.3741 146.247 32.9062L149.713 11.9545ZM162.561 47.1818C161.728 47.1818 160.951 47.1155 160.232 46.983C159.521 46.8598 158.915 46.6941 158.413 46.4858L160.8 41.4432C161.434 41.6705 162.017 41.7983 162.547 41.8267C163.087 41.8646 163.57 41.7746 163.996 41.5568C164.431 41.3485 164.81 40.9744 165.132 40.4347L165.53 39.767L161.538 17.1818H168.555L169.976 32.7642H170.203L176.879 17.1818H184.45L172.277 41.0881C171.661 42.2813 170.918 43.3371 170.047 44.2557C169.176 45.1742 168.125 45.8892 166.893 46.4006C165.672 46.9214 164.228 47.1818 162.561 47.1818ZM195.253 9.90909L190.423 39H183.477L188.307 9.90909H195.253ZM204.987 39.4119C202.704 39.4119 200.81 38.9621 199.305 38.0625C197.808 37.1534 196.757 35.8608 196.151 34.1847C195.545 32.4991 195.436 30.4962 195.825 28.1761C196.203 25.9223 196.975 23.9527 198.14 22.267C199.314 20.572 200.791 19.2557 202.572 18.3182C204.352 17.3712 206.336 16.8977 208.523 16.8977C210.076 16.8977 211.454 17.1392 212.657 17.6222C213.86 18.1051 214.854 18.8248 215.64 19.7812C216.426 20.7282 216.961 21.893 217.245 23.2756C217.529 24.6581 217.52 26.2443 217.217 28.0341L216.947 29.767H197.998L198.637 25.733H211.137C211.251 24.9943 211.189 24.3362 210.952 23.7585C210.716 23.1809 210.332 22.7311 209.802 22.4091C209.281 22.0777 208.642 21.9119 207.884 21.9119C207.117 21.9119 206.397 22.0919 205.725 22.4517C205.062 22.8021 204.499 23.2756 204.035 23.8722C203.571 24.4687 203.268 25.1411 203.126 25.8892L202.373 30.0227C202.221 30.9413 202.264 31.7273 202.501 32.3807C202.737 33.0341 203.145 33.536 203.722 33.8864C204.3 34.2273 205.043 34.3977 205.952 34.3977C206.558 34.3977 207.127 34.3172 207.657 34.1562C208.187 33.9858 208.661 33.7348 209.077 33.4034C209.504 33.0625 209.849 32.6506 210.114 32.1676L216.45 32.3523C215.938 33.7822 215.147 35.0275 214.077 36.0881C213.007 37.1392 211.701 37.9583 210.157 38.5455C208.623 39.1231 206.899 39.4119 204.987 39.4119Z" fill="#794328"/>
</g>
<g filter="url(#filter1_i_6_7)">
<path d="M0.383523 39L5.21307 9.90909H12.2443L10.3125 21.5852H21.7756L23.7074 9.90909H30.7244L25.8949 39H18.8778L20.8097 27.3097H9.34659L7.41477 39H0.383523ZM40.4759 39.4119C38.1747 39.4119 36.276 38.9384 34.7798 37.9915C33.2931 37.0445 32.2467 35.7235 31.6406 34.0284C31.0346 32.3333 30.9162 30.3636 31.2855 28.1193C31.6548 25.8845 32.4171 23.9242 33.5724 22.2386C34.7277 20.553 36.205 19.2415 38.0043 18.304C39.8035 17.3665 41.8442 16.8977 44.1264 16.8977C46.4181 16.8977 48.3073 17.3712 49.794 18.3182C51.2902 19.2652 52.3414 20.5862 52.9474 22.2812C53.563 23.9763 53.6861 25.9508 53.3168 28.2045C52.9474 30.4394 52.1804 32.3996 51.0156 34.0852C49.8509 35.7614 48.3736 37.0682 46.5838 38.0057C44.794 38.9432 42.758 39.4119 40.4759 39.4119ZM41.2571 34.1705C42.1094 34.1705 42.8717 33.9148 43.544 33.4034C44.2259 32.892 44.7988 32.1771 45.2628 31.2585C45.7268 30.34 46.0582 29.2746 46.2571 28.0625C46.456 26.8693 46.4749 25.8229 46.3139 24.9233C46.1624 24.0142 45.8404 23.3087 45.348 22.8068C44.8556 22.2955 44.188 22.0398 43.3452 22.0398C42.4929 22.0398 41.7259 22.3002 41.044 22.821C40.3622 23.3324 39.7893 24.0473 39.3253 24.9659C38.8707 25.875 38.544 26.9403 38.3452 28.1619C38.1463 29.3551 38.1226 30.4015 38.2741 31.3011C38.4257 32.2008 38.7524 32.9062 39.2543 33.4176C39.7562 33.9195 40.4238 34.1705 41.2571 34.1705ZM55.1136 39L58.75 17.1818H65.3551L64.7017 21.1875H64.9432C65.6061 19.8617 66.5436 18.8153 67.7557 18.0483C68.9678 17.2812 70.322 16.8977 71.8182 16.8977C73.3239 16.8977 74.5502 17.286 75.4972 18.0625C76.4536 18.839 76.9697 19.8807 77.0455 21.1875H77.2727C77.8977 19.8902 78.8636 18.8532 80.1705 18.0767C81.4867 17.2907 82.9545 16.8977 84.5739 16.8977C86.6193 16.8977 88.1771 17.5606 89.2472 18.8864C90.3267 20.2027 90.6723 22.0114 90.2841 24.3125L87.8409 39H80.9091L83.125 25.9034C83.2765 24.8144 83.1155 23.9858 82.642 23.4176C82.178 22.84 81.5009 22.5511 80.6108 22.5511C79.6544 22.5511 78.8542 22.8589 78.2102 23.4744C77.5758 24.09 77.1828 24.9233 77.0312 25.9744L74.8295 39H68.1392L70.3693 25.8324C70.5114 24.8191 70.3551 24.0189 69.9006 23.4318C69.4555 22.8447 68.7784 22.5511 67.8693 22.5511C67.2727 22.5511 66.7188 22.6979 66.2074 22.9915C65.696 23.2756 65.2652 23.6828 64.9148 24.2131C64.5739 24.7434 64.3513 25.3684 64.2472 26.0881L62.0597 39H55.1136ZM102.244 39.4119C99.9621 39.4119 98.0682 38.9621 96.5625 38.0625C95.0663 37.1534 94.0152 35.8608 93.4091 34.1847C92.803 32.4991 92.6941 30.4962 93.0824 28.1761C93.4612 25.9223 94.233 23.9527 95.3977 22.267C96.572 20.572 98.0492 19.2557 99.8295 18.3182C101.61 17.3712 103.594 16.8977 105.781 16.8977C107.334 16.8977 108.712 17.1392 109.915 17.6222C111.117 18.1051 112.112 18.8248 112.898 19.7812C113.684 20.7282 114.219 21.893 114.503 23.2756C114.787 24.6581 114.777 26.2443 114.474 28.0341L114.205 29.767H95.2557L95.8949 25.733H108.395C108.509 24.9943 108.447 24.3362 108.21 23.7585C107.973 23.1809 107.59 22.7311 107.06 22.4091C106.539 22.0777 105.9 21.9119 105.142 21.9119C104.375 21.9119 103.655 22.0919 102.983 22.4517C102.32 22.8021 101.757 23.2756 101.293 23.8722C100.829 24.4687 100.526 25.1411 100.384 25.8892L99.6307 30.0227C99.4792 30.9413 99.5218 31.7273 99.7585 32.3807C99.9953 33.0341 100.402 33.536 100.98 33.8864C101.558 34.2273 102.301 34.3977 103.21 34.3977C103.816 34.3977 104.384 34.3172 104.915 34.1562C105.445 33.9858 105.919 33.7348 106.335 33.4034C106.761 33.0625 107.107 32.6506 107.372 32.1676L113.707 32.3523C113.196 33.7822 112.405 35.0275 111.335 36.0881C110.265 37.1392 108.958 37.9583 107.415 38.5455C105.881 39.1231 104.157 39.4119 102.244 39.4119Z" fill="#BB9C36"/>
</g>
<defs>
<filter id="filter0_i_6_7" x="117.639" y="9.51135" width="100.032" height="41.6705" filterUnits="userSpaceOnUse" color-interpolation-filters="sRGB">
<feFlood flood-opacity="0" result="BackgroundImageFix"/>
<feBlend mode="normal" in="SourceGraphic" in2="BackgroundImageFix" result="shape"/>
<feColorMatrix in="SourceAlpha" type="matrix" values="0 0 0 0 0 0 0 0 0 0 0 0 0 0 0 0 0 0 127 0" result="hardAlpha"/>
<feOffset dy="4"/>
<feGaussianBlur stdDeviation="2"/>
<feComposite in2="hardAlpha" operator="arithmetic" k2="-1" k3="1"/>
<feColorMatrix type="matrix" values="0 0 0 0 0 0 0 0 0 0 0 0 0 0 0 0 0 0 0.25 0"/>
<feBlend mode="normal" in2="shape" result="effect1_innerShadow_6_7"/>
</filter>
<filter id="filter1_i_6_7" x="0.383522" y="9.90909" width="114.545" height="33.5028" filterUnits="userSpaceOnUse" color-interpolation-filters="sRGB">
<feFlood flood-opacity="0" result="BackgroundImageFix"/>
<feBlend mode="normal" in="SourceGraphic" in2="BackgroundImageFix" result="shape"/>
<feColorMatrix in="SourceAlpha" type="matrix" values="0 0 0 0 0 0 0 0 0 0 0 0 0 0 0 0 0 0 127 0" result="hardAlpha"/>
<feOffset dy="4"/>
<feGaussianBlur stdDeviation="2"/>
<feComposite in2="hardAlpha" operator="arithmetic" k2="-1" k3="1"/>
<feColorMatrix type="matrix" values="0 0 0 0 0 0 0 0 0 0 0 0 0 0 0 0 0 0 0.25 0"/>
<feBlend mode="normal" in2="shape" result="effect1_innerShadow_6_7"/>
</filter>
</defs>
</svg>
