<svg width="407" height="78" viewBox="0 0 407 78" fill="none" xmlns="http://www.w3.org/2000/svg">
<g filter="url(#filter0_i_1_7)">
<path d="M85.4283 65L90.2578 35.9091H97.2891L95.3573 47.5852H106.82L108.752 35.9091H115.769L110.94 65H103.923L105.854 53.3097H94.3914L92.4596 65H85.4283ZM125.521 65.4119C123.219 65.4119 121.321 64.9384 119.825 63.9915C118.338 63.0445 117.291 61.7235 116.685 60.0284C116.079 58.3333 115.961 56.3636 116.33 54.1193C116.7 51.8845 117.462 49.9242 118.617 48.2386C119.773 46.553 121.25 45.2415 123.049 44.304C124.848 43.3665 126.889 42.8977 129.171 42.8977C131.463 42.8977 133.352 43.3712 134.839 44.3182C136.335 45.2652 137.386 46.5862 137.992 48.2812C138.608 49.9763 138.731 51.9508 138.362 54.2045C137.992 56.4394 137.225 58.3996 136.06 60.0852C134.896 61.7614 133.418 63.0682 131.629 64.0057C129.839 64.9432 127.803 65.4119 125.521 65.4119ZM126.302 60.1705C127.154 60.1705 127.916 59.9148 128.589 59.4034C129.271 58.892 129.844 58.1771 130.308 57.2585C130.772 56.34 131.103 55.2746 131.302 54.0625C131.501 52.8693 131.52 51.8229 131.359 50.9233C131.207 50.0142 130.885 49.3087 130.393 48.8068C129.9 48.2955 129.233 48.0398 128.39 48.0398C127.538 48.0398 126.771 48.3002 126.089 48.821C125.407 49.3324 124.834 50.0473 124.37 50.9659C123.916 51.875 123.589 52.9403 123.39 54.1619C123.191 55.3551 123.167 56.4015 123.319 57.3011C123.47 58.2008 123.797 58.9062 124.299 59.4176C124.801 59.9195 125.469 60.1705 126.302 60.1705ZM140.158 65L143.795 43.1818H150.4L149.746 47.1875H149.988C150.651 45.8617 151.588 44.8153 152.8 44.0483C154.013 43.2812 155.367 42.8977 156.863 42.8977C158.369 42.8977 159.595 43.286 160.542 44.0625C161.498 44.839 162.014 45.8807 162.09 47.1875H162.318C162.943 45.8902 163.908 44.8532 165.215 44.0767C166.532 43.2907 167.999 42.8977 169.619 42.8977C171.664 42.8977 173.222 43.5606 174.292 44.8864C175.371 46.2027 175.717 48.0114 175.329 50.3125L172.886 65H165.954L168.17 51.9034C168.321 50.8144 168.16 49.9858 167.687 49.4176C167.223 48.84 166.546 48.5511 165.656 48.5511C164.699 48.5511 163.899 48.8589 163.255 49.4744C162.621 50.09 162.228 50.9233 162.076 51.9744L159.874 65H153.184L155.414 51.8324C155.556 50.8191 155.4 50.0189 154.945 49.4318C154.5 48.8447 153.823 48.5511 152.914 48.5511C152.318 48.5511 151.764 48.6979 151.252 48.9915C150.741 49.2756 150.31 49.6828 149.96 50.2131C149.619 50.7434 149.396 51.3684 149.292 52.0881L147.104 65H140.158ZM187.289 65.4119C185.007 65.4119 183.113 64.9621 181.607 64.0625C180.111 63.1534 179.06 61.8608 178.454 60.1847C177.848 58.4991 177.739 56.4962 178.127 54.1761C178.506 51.9223 179.278 49.9527 180.443 48.267C181.617 46.572 183.094 45.2557 184.874 44.3182C186.655 43.3712 188.639 42.8977 190.826 42.8977C192.379 42.8977 193.757 43.1392 194.96 43.6222C196.162 44.1051 197.157 44.8248 197.943 45.7812C198.728 46.7282 199.264 47.893 199.548 49.2756C199.832 50.6581 199.822 52.2443 199.519 54.0341L199.249 55.767H180.3L180.94 51.733H193.44C193.553 50.9943 193.492 50.3362 193.255 49.7585C193.018 49.1809 192.635 48.7311 192.104 48.4091C191.584 48.0777 190.944 47.9119 190.187 47.9119C189.42 47.9119 188.7 48.0919 188.028 48.4517C187.365 48.8021 186.801 49.2756 186.337 49.8722C185.873 50.4687 185.57 51.1411 185.428 51.8892L184.675 56.0227C184.524 56.9413 184.567 57.7273 184.803 58.3807C185.04 59.0341 185.447 59.536 186.025 59.8864C186.603 60.2273 187.346 60.3977 188.255 60.3977C188.861 60.3977 189.429 60.3172 189.96 60.1562C190.49 59.9858 190.963 59.7348 191.38 59.4034C191.806 59.0625 192.152 58.6506 192.417 58.1676L198.752 58.3523C198.241 59.7822 197.45 61.0275 196.38 62.0881C195.31 63.1392 194.003 63.9583 192.46 64.5455C190.925 65.1231 189.202 65.4119 187.289 65.4119Z" fill="#AC6C48"/>
</g>
<g filter="url(#filter1_i_1_7)">
<path d="M221.948 44.6875C222.024 43.6174 221.739 42.7888 221.096 42.2017C220.461 41.6146 219.457 41.321 218.084 41.321C217.175 41.321 216.399 41.4394 215.755 41.6761C215.111 41.9034 214.604 42.2254 214.235 42.642C213.865 43.0492 213.633 43.5227 213.539 44.0625C213.453 44.4886 213.477 44.8674 213.61 45.1989C213.742 45.5303 213.974 45.8239 214.306 46.0795C214.647 46.3352 215.068 46.5578 215.57 46.7472C216.081 46.9366 216.654 47.1023 217.289 47.2443L219.675 47.8125C221.058 48.125 222.256 48.5417 223.269 49.0625C224.292 49.5739 225.12 50.1941 225.755 50.9233C226.389 51.643 226.825 52.4716 227.061 53.4091C227.298 54.3466 227.317 55.3977 227.118 56.5625C226.815 58.3996 226.091 59.9763 224.945 61.2926C223.809 62.6089 222.322 63.6174 220.485 64.3182C218.657 65.0189 216.531 65.3693 214.107 65.3693C211.683 65.3693 209.623 65.0047 207.928 64.2756C206.242 63.5369 205.021 62.4242 204.263 60.9375C203.506 59.4508 203.302 57.5758 203.652 55.3125H210.371C210.267 56.25 210.385 57.0312 210.726 57.6562C211.077 58.2812 211.616 58.7547 212.346 59.0767C213.075 59.3987 213.955 59.5597 214.988 59.5597C215.935 59.5597 216.763 59.4318 217.473 59.1761C218.193 58.9205 218.766 58.5653 219.192 58.1108C219.628 57.6562 219.893 57.1354 219.988 56.5483C220.082 56.0085 219.992 55.5398 219.718 55.142C219.453 54.7443 218.998 54.3987 218.354 54.1051C217.72 53.8116 216.886 53.5464 215.854 53.3097L212.942 52.5994C210.537 52.0123 208.714 51.0748 207.473 49.7869C206.242 48.4991 205.807 46.7519 206.167 44.5455C206.47 42.7367 207.218 41.1553 208.411 39.8011C209.614 38.447 211.133 37.3958 212.971 36.6477C214.817 35.8902 216.848 35.5114 219.064 35.5114C221.318 35.5114 223.212 35.8949 224.746 36.6619C226.29 37.4195 227.402 38.4896 228.084 39.8722C228.775 41.2453 228.974 42.8504 228.681 44.6875H221.948ZM245.229 43.1818L244.363 48.2955H230.598L231.465 43.1818H245.229ZM235.201 37.9545H242.147L238.794 58.1392C238.728 58.5653 238.738 58.911 238.823 59.1761C238.917 59.4318 239.088 59.6165 239.334 59.7301C239.59 59.8343 239.902 59.8864 240.272 59.8864C240.527 59.8864 240.811 59.858 241.124 59.8011C241.436 59.7443 241.673 59.7017 241.834 59.6733L242.061 64.6875C241.692 64.7917 241.195 64.91 240.57 65.0426C239.954 65.1847 239.235 65.2746 238.411 65.3125C236.744 65.3788 235.366 65.1847 234.277 64.7301C233.198 64.2661 232.435 63.5464 231.99 62.571C231.555 61.5956 231.47 60.3741 231.735 58.9062L235.201 37.9545ZM248.049 73.1818C247.215 73.1818 246.439 73.1155 245.719 72.983C245.009 72.8598 244.403 72.6941 243.901 72.4858L246.287 67.4432C246.922 67.6705 247.504 67.7983 248.034 67.8267C248.574 67.8646 249.057 67.7746 249.483 67.5568C249.919 67.3485 250.298 66.9744 250.62 66.4347L251.017 65.767L247.026 43.1818H254.043L255.463 58.7642H255.691L262.367 43.1818H269.938L257.765 67.0881C257.149 68.2813 256.406 69.3371 255.534 70.2557C254.663 71.1742 253.612 71.8892 252.381 72.4006C251.159 72.9214 249.715 73.1818 248.049 73.1818ZM280.74 35.9091L275.911 65H268.965L273.794 35.9091H280.74ZM290.474 65.4119C288.192 65.4119 286.298 64.9621 284.792 64.0625C283.296 63.1534 282.245 61.8608 281.639 60.1847C281.033 58.4991 280.924 56.4962 281.312 54.1761C281.691 51.9223 282.463 49.9527 283.627 48.267C284.802 46.572 286.279 45.2557 288.059 44.3182C289.84 43.3712 291.824 42.8977 294.011 42.8977C295.564 42.8977 296.942 43.1392 298.145 43.6222C299.347 44.1051 300.341 44.8248 301.127 45.7812C301.913 46.7282 302.449 47.893 302.733 49.2756C303.017 50.6581 303.007 52.2443 302.704 54.0341L302.434 55.767H283.485L284.125 51.733H296.625C296.738 50.9943 296.677 50.3362 296.44 49.7585C296.203 49.1809 295.82 48.7311 295.289 48.4091C294.769 48.0777 294.129 47.9119 293.372 47.9119C292.605 47.9119 291.885 48.0919 291.213 48.4517C290.55 48.8021 289.986 49.2756 289.522 49.8722C289.058 50.4687 288.755 51.1411 288.613 51.8892L287.86 56.0227C287.709 56.9413 287.752 57.7273 287.988 58.3807C288.225 59.0341 288.632 59.536 289.21 59.8864C289.788 60.2273 290.531 60.3977 291.44 60.3977C292.046 60.3977 292.614 60.3172 293.145 60.1562C293.675 59.9858 294.148 59.7348 294.565 59.4034C294.991 59.0625 295.337 58.6506 295.602 58.1676L301.937 58.3523C301.426 59.7822 300.635 61.0275 299.565 62.0881C298.495 63.1392 297.188 63.9583 295.645 64.5455C294.11 65.1231 292.387 65.4119 290.474 65.4119Z" fill="#585350"/>
</g>
<defs>
<filter id="filter0_i_1_7" x="85.4283" y="35.9091" width="114.545" height="33.5028" filterUnits="userSpaceOnUse" color-interpolation-filters="sRGB">
<feFlood flood-opacity="0" result="BackgroundImageFix"/>
<feBlend mode="normal" in="SourceGraphic" in2="BackgroundImageFix" result="shape"/>
<feColorMatrix in="SourceAlpha" type="matrix" values="0 0 0 0 0 0 0 0 0 0 0 0 0 0 0 0 0 0 127 0" result="hardAlpha"/>
<feOffset dy="4"/>
<feGaussianBlur stdDeviation="2"/>
<feComposite in2="hardAlpha" operator="arithmetic" k2="-1" k3="1"/>
<feColorMatrix type="matrix" values="0 0 0 0 0 0 0 0 0 0 0 0 0 0 0 0 0 0 0.25 0"/>
<feBlend mode="normal" in2="shape" result="effect1_innerShadow_1_7"/>
</filter>
<filter id="filter1_i_1_7" x="203.127" y="35.5114" width="100.032" height="41.6705" filterUnits="userSpaceOnUse" color-interpolation-filters="sRGB">
<feFlood flood-opacity="0" result="BackgroundImageFix"/>
<feBlend mode="normal" in="SourceGraphic" in2="BackgroundImageFix" result="shape"/>
<feColorMatrix in="SourceAlpha" type="matrix" values="0 0 0 0 0 0 0 0 0 0 0 0 0 0 0 0 0 0 127 0" result="hardAlpha"/>
<feOffset dy="4"/>
<feGaussianBlur stdDeviation="2"/>
<feComposite in2="hardAlpha" operator="arithmetic" k2="-1" k3="1"/>
<feColorMatrix type="matrix" values="0 0 0 0 0 0 0 0 0 0 0 0 0 0 0 0 0 0 0.25 0"/>
<feBlend mode="normal" in2="shape" result="effect1_innerShadow_1_7"/>
</filter>
</defs>
</svg>
